<svg version="1.1" id="Layer_1" xmlns:x="ns_extend;" xmlns:i="ns_ai;" xmlns:graph="ns_graphs;" xmlns="http://www.w3.org/2000/svg" xmlns:xlink="http://www.w3.org/1999/xlink" x="0px" y="0px" viewBox="0 0 537.6 100" style="enable-background:new 0 0 537.6 100;" xml:space="preserve">
 <style type="text/css">
  .st0{fill:#EF7622;}
	.st1{fill:#7C98AB;}
 </style>
 <metadata>
  <sfw xmlns="ns_sfw;">
   <slices>
   </slices>
   <sliceSourceBounds bottomLeftOrigin="true" height="100" width="537.6" x="-380.4" y="0.3">
   </sliceSourceBounds>
  </sfw>
 </metadata>
 <g id="Navigation-Style---Contextual-Footers">
  <g id="Desktop-Option-1---Company" transform="translate(-200.000000, -17.000000)">
   <g id="ChargePoint-Logo" transform="translate(200.000000, 17.000000)">
    <g id="Group">
     <g transform="translate(0.000000, 0.833333)">
      <path id="Path" class="st0" d="M76.5,53.3c-4,0-6.3,2-6.5,9.4c0,4.6-2.6,5.7-4.8,5.7c-4,0-5.4-4-5.4-13.7V41.9
						c0-7.7,0.3-13.4,5.4-13.4c2.8,0,4.8,2,4.8,5.4c0,5.4,2.3,7.4,6.5,7.4c3.7,0,6.3-2.3,6.3-7.4s-3.1-15.7-17.9-15.7
						c-15.6,0-18.5,8.8-18.8,20.8H6.8C2,39.1,0,42.2,0,45.3c0,3.7,2,6.6,6.8,6.6h39.2v1.7c0,13.7,1.7,24.8,18.8,24.8
						c15.1,0,17.9-12,17.9-17.7C83,55.9,80.5,53.3,76.5,53.3z">
      </path>
      <path id="Path_1_" class="st0" d="M92.4,10.3c0-5.4,2.6-7.7,6.5-7.7s6.5,2.6,6.5,7.7v15.4h0.3c2-4.8,7.1-7.4,11.9-7.4
						c7.1,0,12.2,4.6,12.2,14.2v38.2c0,5.4-2.6,7.7-6.5,7.7s-6.5-2.6-6.5-7.7v-35c0-4.3-2.3-6-4.8-6c-4,0-6.8,3.1-6.8,10.3v30.8
						c0,5.4-2.6,7.7-6.5,7.7c-4,0-6.5-2.6-6.5-7.7V10.3H92.4z">
      </path>
      <path id="Shape" class="st0" d="M177.4,64.7c0,3.7,0.9,6.8,0.9,8.5c0,3.4-2.3,5.1-6.5,5.1c-3.4,0-6.8-1.7-6.8-7.4h-0.3
						c-2.3,5.1-7.1,7.1-11.7,7.1c-7.7,0-13.4-4.6-13.4-15.4c0-8.5,2.6-13.7,9.1-17.1l11.4-6c2.8-1.4,4-3.7,4-6
						c0-3.1-1.7-5.7-4.8-5.7c-4.5,0-5.7,2.3-6.3,6.8c-0.3,2.6-2.8,4-6.3,4c-2.8,0-6.8-1.4-6.8-5.4c0-10,8-15.1,17.9-15.1
						c17.1,0,19,7.7,19,16.8v29.6H177.4z M164.3,47.6l-4.5,3.1c-5.7,4-6.8,6-6.8,10.8c0,4.3,1.7,6.8,4.5,6.8c4.3,0,6.8-4.6,6.8-10.5
						V47.6z">
      </path>
      <path id="Path_2_" class="st0" d="M188.2,25.4c0-4.3,1.7-6.8,6-6.8s6,2.8,6,6.8v5.4h0.3c2-7.1,5.1-12.3,9.7-12.3
						c3.4,0,6.3,2.6,6.3,8.3c0,4-2,7.7-8,7.7c-4,0-7.4,2.8-7.4,7.7v28.2c0,5.4-2.6,7.7-6.5,7.7s-6.5-2.6-6.5-7.7v-45H188.2z">
      </path>
      <path id="Shape_1_" class="st0" d="M220.9,39.9c0-10.8,2.8-21.4,13.6-21.4c4.8,0,10,2.8,11.9,7.7h0.3c0-5.4,2.3-7.7,6.3-7.7
						c3.7,0,6.3,2.6,6.3,7.7v54.1c0,13.1-6.5,18.8-19.3,18.8c-9.7,0-16.8-3.1-16.8-10.5c0-3.7,2.8-5.7,6.5-5.7
						c2.8,0,4.8,1.7,5.7,3.7c1.1,2.6,2.8,3.4,4.5,3.4c5.7,0,6.8-3.7,6.8-11.4v-8h-0.3c-2.8,5.4-6,6.6-11.4,6.6
						c-11.7,0-13.6-10.5-13.6-22.2V39.9H220.9z M234.5,50.7c0,12.5,1.1,16,5.4,16c3.1,0,6.3-2.3,6.3-14v-10c0-11.4-3.7-14-6.3-14
						c-3.7,0-5.7,3.4-5.7,12.5v9.4H234.5z">
      </path>
      <path id="Shape_2_" class="st0" d="M269.5,42.5c0-14.5,2-23.9,19.6-23.9c13.4,0,17.9,7.4,17.9,22.5c0,5.1-0.6,9.1-7.1,9.1
						h-16.8v5.7c0,6.8,0.6,12.3,5.7,12.3c2.8,0,4.8-2.8,4.8-6c0.3-5.7,2.8-6.8,6.3-6.8c3.7,0,6.5,1.1,6.5,6.3
						c0,10.3-7.1,16.5-17.6,16.5c-17.6,0-19.6-9.4-19.6-23.9V42.5H269.5z M294,41v-4.8c0-4.3-1.4-7.7-5.7-7.7s-5.7,3.4-5.7,7.7V41
						H294z">
      </path>
      <path id="Shape_3_" class="st1" d="M316.4,26.2c0-5.4,2.6-7.7,6.5-7.7s6.5,2.6,6.5,7.7h0.3c2.3-4.8,6.8-7.7,11.4-7.7
						c11.7,0,13.6,10.5,13.6,22.2v15.4c0,11.7-2,22.2-13.6,22.2c-4.8,0-9.1-2-11.4-6.6h-0.3v16.2c0,5.4-2.6,7.7-6.5,7.7
						s-6.5-2.6-6.5-7.7V26.2z M329.5,54.4c0,8.3,1.4,14,6.5,14c4.8,0,5.4-5.4,5.4-15.1v-8c0-12.5-1.1-16-5.4-16
						c-3.1,0-6.3,2.3-6.3,14v11.1H329.5z">
      </path>
      <path id="Shape_4_" class="st1" d="M363.1,40.8c0-12.3,4-22.2,19.3-22.2s19.3,10,19.3,22.2v15.7c0,12.3-4,22.2-19.3,22.2
						s-19.3-10-19.3-22.2V40.8z M376.7,55.3c0,10.5,1.7,13.1,6,13.1c4.3,0,6-2.6,6-13.1V41.6c0-10.3-2-12.8-6-12.8
						c-3.7,0-6,2.6-6,12.8V55.3z">
      </path>
      <path id="Path_3_" class="st1" d="M412.2,26.2c0-5.4,2.6-7.7,6.5-7.7c4,0,6.5,2.6,6.5,7.7v44.4c0,5.4-2.6,7.7-6.5,7.7
						c-4,0-6.5-2.6-6.5-7.7V26.2z">
      </path>
      <path id="Path_4_" class="st1" d="M529.9,39.3h-19.3V24.5c0-4.3-2.6-7.4-6.3-7.4s-6.3,3.1-6.3,7.4v14.5h-23.6v-6.6
						c0-9.7-5.1-14.2-12.2-14.2c-4.8,0-10,2.6-11.9,7.4H450c0-4.8-2.6-7.4-6.5-7.4c-4,0-6.5,2.6-6.5,7.7v44.4c0,5.4,2.6,7.7,6.5,7.7
						c4,0,6.5-2.6,6.5-7.7V39.9c0-7.1,2.6-10.3,6.8-10.3c2.8,0,4.8,1.7,4.8,6v35c0,5.4,2.6,7.7,6.5,7.7s6.5-2.6,6.5-7.7V51.9h23.6
						v19.4c0,4.3,2.6,7.4,6.3,7.4c3.7,0,6.3-3.1,6.3-7.4V51.9h19.3c4.5,0,7.4-2.6,7.4-6.3C537.3,41.9,534.5,39.3,529.9,39.3z">
      </path>
     </g>
     <path id="Path_5_" class="st1" d="M418.8,0c4,0,7.4,3.4,7.4,7.4s-3.4,7.4-7.4,7.4c-4,0-7.4-3.4-7.4-7.4
					C411.4,3.1,414.5,0,418.8,0z">
     </path>
    </g>
    <path id="Shape_5_" class="st1" d="M523.4,72.1L523.4,72.1c0-4.6,3.1-8,6.8-8c4,0,6.8,3.4,6.8,7.4v0.3c0,4.3-3.1,7.7-6.8,7.7
				C526.5,79.8,523.4,76.4,523.4,72.1z M536.5,72.1L536.5,72.1c0-4-2.6-6.8-6-6.8c-3.4,0-6,3.1-6,6.8v0.3c0,3.7,2.6,6.8,6,6.8
				C533.9,78.9,536.5,75.8,536.5,72.1z M527.7,67.8h2.8c1.7,0,2.8,0.9,2.8,2.6c0,1.1-0.6,2-1.7,2.3l2,3.1h-1.7l-1.7-2.8h-1.4v2.8
				h-1.4v-8H527.7z M530.5,71.8c1.1,0,1.7-0.6,1.7-1.4s-0.6-1.4-1.7-1.4h-1.4v2.6h1.4V71.8z">
    </path>
   </g>
  </g>
 </g>
</svg>